# xmcd
#
# Track frame offsets: 
#        150
#        4235
#        13245
#        29627
#        41464
#        47593
#        54752
#        66557
#        73023
#        84569
#        93053
#        98808
#        106673
#        113321
#        117069
#        136247
#        146122
#        158716
#        164625
#
# Disc length: 2395 seconds
#
# Revision: 0
# Processed by: cddbd v1.5.2PL0 Copyright (c) Steve Scherf et al.
# Submitted via: ExactAudioCopy v0.99pb5
#
DISCID=f4095913
DTITLE=Huge and Mode - Demo
DYEAR=2010
DGENRE=Rap
TTITLE0=Demo 01
TTITLE1=Demo 02
TTITLE2=Demo 03
TTITLE3=Demo 04
TTITLE4=Demo 05
TTITLE5=Demo 06
TTITLE6=Demo 07
TTITLE7=Demo 08
TTITLE8=Demo 09
TTITLE9=Demo 10
TTITLE10=Demo 11
TTITLE11=Demo 12
TTITLE12=Demo 13
TTITLE13=Demo 14
TTITLE14=Demo 15
TTITLE15=Demo 16
TTITLE16=Demo 17
TTITLE17=Demo 18
TTITLE18=Demo 19
EXTD=
EXTT0=
EXTT1=
EXTT2=
EXTT3=
EXTT4=
EXTT5=
EXTT6=
EXTT7=
EXTT8=
EXTT9=
EXTT10=
EXTT11=
EXTT12=
EXTT13=
EXTT14=
EXTT15=
EXTT16=
EXTT17=
EXTT18=
PLAYORDER=
